# xmcd
#
# Track frame offsets: 
#        150
#        11185
#        22972
#        35520
#        45677
#        55347
#        67370
#        80167
#        92730
#        103855
#        113040
#        124877
#        136432
#        148197
#        160532
#        173345
#        183655
#        196195
#        207130
#        218957
#        230585
#        243105
#
# Disc length: 3422 seconds
#
# Revision: 4
# Processed by: cddbd v1.5.2PL0 Copyright (c) Steve Scherf et al.
# Submitted via: ExactAudioCopyFreeDBPlugin 1.0
#
DISCID=3f0d5c16
DTITLE=Hank Snow - I've Been Everywhere (The Hank Snow Story Disc 2)
DYEAR=2000
DGENRE=Country
TTITLE0=Let Me Go Lover-1954
TTITLE1=I've Forgotten You-1954
TTITLE2=Yellow Roses-1955
TTITLE3=Would You Mind-1955
TTITLE4=Mainliner (The Hawk Of The West)-1955
TTITLE5=Born To Be Happy-1955
TTITLE6=These Hands-1956
TTITLE7=I'm Moving In-1956
TTITLE8=Conscience I'm Guilty-1956
TTITLE9=Hula Rock-1956
TTITLE10=Tangled Mind-1957
TTITLE11=My Arms Are A House-1957
TTITLE12=The Last Ride-1959
TTITLE13=Party Of The Second Part-1959
TTITLE14=Beggar To A King-1961
TTITLE15=Poor Little Jimmie-1961
TTITLE16=I've Been Everywhere-1962
TTITLE17=Ancient History-1962
TTITLE18=90 Miles An Hour (Down A Dead End Street)-1963
TTITLE19=Blue Roses-1963
TTITLE20=Hello Love-1974
TTITLE21=Until The End Of Time-1974
EXTD=
EXTT0=
EXTT1=
EXTT2=
EXTT3=
EXTT4=
EXTT5=
EXTT6=
EXTT7=
EXTT8=
EXTT9=
EXTT10=
EXTT11=
EXTT12=
EXTT13=
EXTT14=
EXTT15=
EXTT16=
EXTT17=
EXTT18=
EXTT19=
EXTT20=
EXTT21=
PLAYORDER=
